<svg xmlns="http://www.w3.org/2000/svg" viewBox="0 0 200 200">
  <linearGradient id="a" gradientUnits="userSpaceOnUse" x1="100" y1="149" x2="100" y2="51">
    <stop offset="0" stop-color="#1d40b2"/>
    <stop offset="1" stop-color="#1680d6"/>
  </linearGradient>
  <path fill="url(#a)" d="M169 69V51h-18v5h-42v-5H91v5H49v-5H31v18h5v22h-5v18h5v22h-5v18h18v-5h42v5h18v-5h42v5h18v-18h-5v-22h5V91h-5V69h5zM95 55h10v10H95V55zM35 65V55h10v10H35zm0 40V95h10v10H35zm10 40H35v-10h10v10zm60 0H95v-10h10v10zm46-9h-42v-5H91v5H49v-5h-5v-22h5V91h-5V69h5v-5h42v5h18v-5h42v5h5v22h-5v18h5v22h-5v5zm14-1v10h-10v-10h10zm0-40v10h-10V95h10zm-10-30V55h10v10h-10z"/>
  <path fill="#1960C4" d="M102 93h-4v5h-5v4h5v5h4v-5h5v-4h-5z"/>
  <linearGradient id="b" gradientUnits="userSpaceOnUse" x1="165.629" y1="159.625" x2="188.289" y2="153.553">
    <stop offset="0" stop-color="#1c1c1c"/>
    <stop offset="1" stop-color="#3d3e3f"/>
  </linearGradient>
  <path fill-rule="evenodd" clip-rule="evenodd" fill="url(#b)" d="M174.2 173.2h19.3L160.4 140z"/>
  <linearGradient id="c" gradientUnits="userSpaceOnUse" x1="154.495" y1="165.074" x2="170.848" y2="160.692">
    <stop offset="0" stop-color="#1c1c1c"/>
    <stop offset="1" stop-color="#3d3e3f"/>
  </linearGradient>
  <path fill-rule="evenodd" clip-rule="evenodd" fill="url(#c)" d="M160.4 140v47l13.8-13.8"/>
</svg>
