<svg height="46" viewBox="0 0 145 46" width="145" xmlns="http://www.w3.org/2000/svg"><path d="m64.2 23.289h-3.023v-11.664h3.024v11.664zm-3.2-14.683c0-.467.151-.851.454-1.153.302-.302.714-.453 1.235-.453.514 0 .925.15 1.23.453.306.302.46.686.46 1.153 0 .475-.156.863-.465 1.165-.31.301-.718.452-1.225.452s-.916-.15-1.225-.452c-.31-.302-.464-.69-.464-1.165zm7.93 3.019.095 1.304c.799-1.013 1.88-1.52 3.242-1.52 1.453 0 2.45.593 2.993 1.779.792-1.186 1.921-1.779 3.388-1.779 1.223 0 2.134.368 2.732 1.105s.896 1.845.896 3.326v7.449h-3.023v-7.438c0-.662-.125-1.145-.376-1.45-.25-.306-.691-.458-1.324-.458-.903 0-1.529.445-1.876 1.336l.01 8.01h-3.013v-7.428c0-.675-.129-1.164-.386-1.466s-.695-.452-1.314-.452c-.855 0-1.473.366-1.856 1.1v8.246h-3.013v-11.664h2.826zm14.646 5.746c0-1.79.412-3.23 1.236-4.323.823-1.093 1.934-1.639 3.33-1.639 1.238 0 2.2.439 2.889 1.315l.125-1.1h2.732v11.277c0 1.02-.224 1.908-.673 2.663a4.369 4.369 0 0 1 -1.892 1.725c-.813.395-1.766.592-2.857.592-.827 0-1.633-.17-2.419-.512-.785-.341-1.38-.781-1.783-1.32l1.336-1.899c.75.87 1.661 1.305 2.731 1.305.8 0 1.422-.221 1.867-.663s.667-1.07.667-1.881v-.626c-.695.813-1.61 1.219-2.742 1.219-1.355 0-2.452-.548-3.29-1.644-.837-1.096-1.256-2.55-1.256-4.361v-.13zm3.013.226c0 1.056.205 1.885.615 2.485s.974.9 1.69.9c.917 0 1.574-.356 1.97-1.067v-4.905c-.403-.712-1.053-1.067-1.95-1.067-.723 0-1.29.305-1.704.916-.414.61-.62 1.523-.62 2.738zm19.191-.032c0 1.796-.394 3.236-1.183 4.317-.789 1.082-1.854 1.623-3.196 1.623-1.14 0-2.06-.41-2.763-1.23v5.499h-3.013v-16.15h2.794l.105 1.143c.73-.905 1.682-1.358 2.857-1.358 1.39 0 2.47.532 3.242 1.596.772 1.063 1.157 2.53 1.157 4.398zm-3.013-.227c0-1.085-.186-1.922-.558-2.512-.371-.589-.912-.883-1.62-.883-.946 0-1.596.373-1.95 1.12v4.776c.368.77 1.025 1.154 1.97 1.154 1.439 0 2.158-1.218 2.158-3.655zm10.642-2.792a7.922 7.922 0 0 0 -1.084-.086c-1.14 0-1.888.399-2.242 1.197v7.632h-3.013v-11.664h2.846l.083 1.39c.605-1.07 1.443-1.606 2.513-1.606.334 0 .647.047.939.14zm.027 2.803c0-1.157.216-2.188.647-3.094.43-.905 1.051-1.606 1.861-2.102s1.75-.744 2.82-.744c1.523 0 2.765.482 3.728 1.445.962.963 1.5 2.27 1.61 3.924l.021.797c0 1.79-.483 3.226-1.449 4.307-.966 1.082-2.262 1.623-3.889 1.623-1.626 0-2.924-.54-3.894-1.617-.97-1.078-1.455-2.545-1.455-4.399zm3.014.226c0 1.107.201 1.953.604 2.54.404.585.98.878 1.731.878.73 0 1.3-.29 1.71-.868.41-.579.615-1.504.615-2.776 0-1.085-.205-1.926-.615-2.523-.41-.596-.987-.894-1.73-.894-.737 0-1.307.296-1.71.89-.404.592-.605 1.51-.605 2.753zm13.029-2.468 1.897-3.482h3.222l-3.211 5.713 3.347 5.951h-3.232l-2.013-3.665-2.002 3.665h-3.242l3.347-5.95-3.201-5.714h3.232zm10.204 3.773 2.085-7.255h3.232l-4.535 13.475-.25.615c-.675 1.523-1.787 2.285-3.337 2.285-.438 0-.883-.068-1.335-.205v-2.36l.46.01c.57 0 .995-.09 1.276-.27.282-.18.503-.477.662-.894l.355-.96-3.952-11.696h3.243zm-89.973 22.446-.067-.142-4.433-10.454.955.938v-3.257h-3.445v3.382h1.85v-.811l4.443 10.473.059.124-4.503 4.421v-12.853h-3.228v-1.691h-14.47v1.691h-6.2v-1.691h-14.471v1.691h-6.2v-6.087h1.723v-7.441h-1.723v-6.089h1.723v-7.44h-1.723v-6.09h6.201v1.691h14.47v-1.691h6.2v1.691h14.47v-1.691h6.201v6.088h-1.722v7.441h1.722v6.089h-1.722v7.44h1.722v5.964l8.458 8.304zm-27.661-39.973v3.382h3.445v-3.382zm-20.671 3.382h3.445v-3.382h-3.445zm0 13.53h3.445v-3.383h-3.445zm3.445 13.53v-3.383h-3.445v3.382h3.445zm20.67 0v-3.383h-3.443v3.382h3.445zm20.671-16.913h-3.444v3.383h3.445v-3.383zm-3.444-10.147h3.445v-3.382h-3.445zm-1.379 24.015v-1.691h1.723v-7.441h-1.724v-6.089h1.723v-7.439h-1.723v-1.694h-14.47v1.691h-6.2v-1.69h-14.47v1.69h-1.72v7.441h1.72v6.089h-1.72v7.44h1.72v1.692h14.47v-1.691h6.2v1.691h14.47zm-16.88-14.544v1.691h1.722v1.353h-1.723v1.691h-1.378v-1.691h-1.722v-1.353h1.722v-1.691h1.378z" fill="#fff"/></svg>