<svg xmlns="http://www.w3.org/2000/svg" width="64" height="27" viewBox="0 0 64 27">
    <svg fill="none" fill-rule="evenodd" x="5">
        <rect width="53" height="26" x=".5" y=".5" stroke="#40a6ff" rx="13"/>
        <path fill="#40a6ff" fill-rule="nonzero" d="M15.15 15.243V19h-2.198V8.336h4.16c.801 0 1.505.146 2.113.44.608.292 1.076.709 1.403 1.248.327.54.49 1.154.49 1.842 0 1.045-.357 1.87-1.072 2.472-.716.603-1.706.905-2.97.905h-1.927zm0-1.78h1.962c.581 0 1.024-.137 1.33-.41.305-.274.457-.664.457-1.172 0-.523-.153-.945-.461-1.267-.308-.322-.732-.489-1.274-.498h-2.015v3.347zm11.425 1.633h-1.75V19h-2.198V8.336h3.963c1.26 0 2.231.28 2.915.842.683.562 1.025 1.355 1.025 2.38 0 .728-.157 1.335-.472 1.82-.315.487-.792.873-1.432 1.162l2.307 4.357V19h-2.358l-2-3.904zm-1.75-1.78h1.772c.552 0 .98-.14 1.282-.42.303-.281.454-.668.454-1.162 0-.503-.143-.898-.428-1.186-.286-.288-.724-.432-1.315-.432h-1.765v3.2zm16.135.594c0 1.05-.186 1.97-.557 2.76-.37.792-.902 1.402-1.593 1.832-.69.43-1.483.644-2.376.644-.884 0-1.673-.212-2.366-.637-.693-.425-1.23-1.031-1.611-1.82-.381-.788-.574-1.695-.58-2.72v-.528c0-1.05.19-1.974.569-2.772.378-.799.913-1.411 1.604-1.839.69-.427 1.48-.64 2.369-.64.889 0 1.678.213 2.37.64.69.428 1.225 1.04 1.603 1.839.379.798.568 1.72.568 2.765v.476zm-2.227-.484c0-1.118-.2-1.968-.6-2.549-.4-.58-.972-.871-1.714-.871-.737 0-1.306.287-1.707.86-.4.574-.603 1.415-.608 2.524v.52c0 1.089.2 1.933.601 2.534.4.6.977.9 1.729.9.737 0 1.303-.289 1.699-.867.395-.579.596-1.422.6-2.53v-.52z"/>
    </svg>
</svg>
